<svg width="32" height="32" viewBox="0 0 32 32" fill="none" xmlns="http://www.w3.org/2000/svg">
<rect width="32" height="32" fill="black"/>
<path d="M7.90859 8.63595C9.36193 8.63595 10.5019 8.93595 11.3286 9.53595C12.1686 10.1226 12.5886 11.0426 12.5886 12.2959C12.5886 13.0559 12.4153 13.7159 12.0686 14.2759C11.7219 14.8359 11.2353 15.2759 10.6086 15.5959C9.99526 15.9159 9.26859 16.0959 8.42859 16.1359L8.14859 15.1359C9.12193 15.1626 9.99526 15.3359 10.7686 15.6559C11.5419 15.9759 12.1553 16.4226 12.6086 16.9959C13.0619 17.5693 13.2886 18.2493 13.2886 19.0359C13.2886 19.7559 13.1553 20.3759 12.8886 20.8959C12.6219 21.4026 12.2619 21.8226 11.8086 22.1559C11.3553 22.4759 10.8419 22.7159 10.2686 22.8759C9.69526 23.0226 9.10193 23.0959 8.48859 23.0959H4.18859V8.63595H7.90859ZM8.30859 14.9759C9.10859 14.9759 9.68859 14.7559 10.0486 14.3159C10.4086 13.8626 10.5886 13.3159 10.5886 12.6759C10.5886 11.9159 10.3553 11.3626 9.88859 11.0159C9.42193 10.6693 8.79526 10.4959 8.00859 10.4959H6.12859V14.9759H8.30859ZM8.38859 21.2959C8.92193 21.2959 9.40859 21.2159 9.84859 21.0559C10.3019 20.8959 10.6553 20.6493 10.9086 20.3159C11.1753 19.9826 11.3086 19.5626 11.3086 19.0559C11.3086 18.4959 11.1553 18.0559 10.8486 17.7359C10.5553 17.4159 10.1753 17.1893 9.70859 17.0559C9.24193 16.9093 8.76193 16.8359 8.26859 16.8359H6.12859V21.2959H8.38859ZM28.2719 21.8559C28.0719 22.0293 27.7919 22.2026 27.4319 22.3759C27.0719 22.5359 26.6719 22.6826 26.2319 22.8159C25.8052 22.9493 25.3585 23.0559 24.8919 23.1359C24.4385 23.2159 24.0119 23.2559 23.6119 23.2559C22.4519 23.2559 21.4052 23.0759 20.4719 22.7159C19.5519 22.3559 18.7585 21.8559 18.0919 21.2159C17.4385 20.5759 16.9319 19.8226 16.5719 18.9559C16.2252 18.0893 16.0519 17.1493 16.0519 16.1359C16.0519 14.9359 16.2452 13.8626 16.6319 12.9159C17.0319 11.9559 17.5719 11.1493 18.2519 10.4959C18.9452 9.82928 19.7385 9.32928 20.6319 8.99595C21.5252 8.64928 22.4719 8.47595 23.4719 8.47595C24.3119 8.47595 25.0919 8.57595 25.8119 8.77595C26.5319 8.97595 27.1652 9.22928 27.7119 9.53595L27.0519 11.3159C26.7852 11.1559 26.4519 11.0093 26.0519 10.8759C25.6652 10.7426 25.2652 10.6359 24.8519 10.5559C24.4385 10.4626 24.0519 10.4159 23.6919 10.4159C22.8385 10.4159 22.0652 10.5493 21.3719 10.8159C20.6785 11.0693 20.0852 11.4426 19.5919 11.9359C19.0985 12.4159 18.7185 13.0026 18.4519 13.6959C18.1852 14.3759 18.0519 15.1426 18.0519 15.9959C18.0519 16.7826 18.1852 17.5026 18.4519 18.1559C18.7185 18.8093 19.0985 19.3759 19.5919 19.8559C20.0852 20.3226 20.6719 20.6893 21.3519 20.9559C22.0452 21.2093 22.8052 21.3359 23.6319 21.3359C24.1252 21.3359 24.6119 21.2893 25.0919 21.1959C25.5719 21.0893 25.9852 20.9426 26.3319 20.7559V17.8759H23.4519V16.0159H28.2719V21.8559Z" fill="white"/>
</svg>
